<svg width="1461" height="1448" viewBox="0 0 1461 1448" fill="none" xmlns="http://www.w3.org/2000/svg">
<path d="M1384.66 983.49C1384.66 990.878 1378.25 996.868 1370.35 996.868C1362.45 996.868 1356.04 990.878 1356.04 983.49C1356.04 976.101 1362.45 970.111 1370.35 970.111C1378.23 970.111 1384.66 976.101 1384.66 983.49Z" stroke="#F90CC5" stroke-opacity="0.5" stroke-width="3" stroke-miterlimit="10" stroke-linecap="round" stroke-linejoin="round"/>
<path d="M1380.69 992.719L1390.79 1002.18" stroke="#F90CC5" stroke-opacity="0.5" stroke-width="3" stroke-miterlimit="10" stroke-linecap="round" stroke-linejoin="round"/>
<path d="M155.538 905.862C155.538 913.25 149.131 919.24 141.229 919.24C133.327 919.24 126.92 913.25 126.92 905.862C126.92 898.474 133.327 892.484 141.229 892.484C149.107 892.484 155.538 898.474 155.538 905.862Z" stroke="#F90CC5" stroke-opacity="0.5" stroke-width="3" stroke-miterlimit="10" stroke-linecap="round" stroke-linejoin="round"/>
<path d="M151.575 915.092L161.669 924.553" stroke="#F90CC5" stroke-opacity="0.5" stroke-width="3" stroke-miterlimit="10" stroke-linecap="round" stroke-linejoin="round"/>
<path d="M341.333 944.102L356.387 958.177" stroke="#F90CC5" stroke-opacity="0.5" stroke-width="3" stroke-miterlimit="10" stroke-linecap="round" stroke-linejoin="round"/>
<path d="M356.387 944.102L341.333 958.177" stroke="#F90CC5" stroke-opacity="0.5" stroke-width="3" stroke-miterlimit="10" stroke-linecap="round" stroke-linejoin="round"/>
<path d="M814.959 932.621L830.013 946.696" stroke="#F90CC5" stroke-opacity="0.5" stroke-width="3" stroke-miterlimit="10" stroke-linecap="round" stroke-linejoin="round"/>
<path d="M830.013 932.621L814.959 946.696" stroke="#F90CC5" stroke-opacity="0.5" stroke-width="3" stroke-miterlimit="10" stroke-linecap="round" stroke-linejoin="round"/>
<path d="M1204.28 1276.01L1219.33 1290.09" stroke="#F90CC5" stroke-opacity="0.5" stroke-width="3" stroke-miterlimit="10" stroke-linecap="round" stroke-linejoin="round"/>
<path d="M1219.33 1276.01L1204.28 1290.09" stroke="#F90CC5" stroke-opacity="0.5" stroke-width="3" stroke-miterlimit="10" stroke-linecap="round" stroke-linejoin="round"/>
<path d="M381.737 1399.75V1419.66" stroke="#F90CC5" stroke-opacity="0.5" stroke-width="3" stroke-miterlimit="10" stroke-linecap="round" stroke-linejoin="round"/>
<path d="M392.409 1409.7H371.095" stroke="#F90CC5" stroke-opacity="0.5" stroke-width="3" stroke-miterlimit="10" stroke-linecap="round" stroke-linejoin="round"/>
<path d="M742.578 1289.18V1309.09" stroke="#F90CC5" stroke-opacity="0.5" stroke-width="3" stroke-miterlimit="10" stroke-linecap="round" stroke-linejoin="round"/>
<path d="M753.25 1299.13H731.936" stroke="#F90CC5" stroke-opacity="0.5" stroke-width="3" stroke-miterlimit="10" stroke-linecap="round" stroke-linejoin="round"/>
<path d="M94.2921 1071.24C94.2921 1077.9 88.5086 1083.33 81.354 1083.33C74.2244 1083.33 68.416 1077.93 68.416 1071.24C68.416 1064.57 74.1995 1059.14 81.354 1059.14C88.5086 1059.16 94.2921 1064.57 94.2921 1071.24Z" stroke="#F90CC5" stroke-opacity="0.5" stroke-width="3" stroke-miterlimit="10" stroke-linecap="round" stroke-linejoin="round"/>
<path d="M855.726 758.035C855.726 764.701 849.943 770.132 842.788 770.132C835.659 770.132 829.85 764.724 829.85 758.035C829.85 751.369 835.634 745.939 842.788 745.939C849.943 745.962 855.726 751.369 855.726 758.035Z" stroke="#F90CC5" stroke-opacity="0.5" stroke-width="3" stroke-miterlimit="10" stroke-linecap="round" stroke-linejoin="round"/>
<path d="M324.567 1280.74C324.567 1287.41 318.784 1292.84 311.629 1292.84C304.5 1292.84 298.691 1287.43 298.691 1280.74C298.691 1274.08 304.475 1268.65 311.629 1268.65C318.784 1268.67 324.567 1274.08 324.567 1280.74Z" stroke="#F90CC5" stroke-opacity="0.5" stroke-width="3" stroke-miterlimit="10" stroke-linecap="round" stroke-linejoin="round"/>
<path d="M1033.6 1433.82C1033.6 1440.49 1027.82 1445.92 1020.66 1445.92C1013.53 1445.92 1007.72 1440.51 1007.72 1433.82C1007.72 1427.16 1013.51 1421.73 1020.66 1421.73C1027.82 1421.75 1033.6 1427.16 1033.6 1433.82Z" stroke="#F90CC5" stroke-opacity="0.5" stroke-width="3" stroke-miterlimit="10" stroke-linecap="round" stroke-linejoin="round"/>
<path d="M742.077 1112.81C742.077 1119.47 736.293 1124.9 729.139 1124.9C722.009 1124.9 716.201 1119.49 716.201 1112.81C716.201 1106.14 721.984 1100.71 729.139 1100.71C736.293 1100.73 742.077 1106.14 742.077 1112.81Z" stroke="#F90CC5" stroke-opacity="0.5" stroke-width="3" stroke-miterlimit="10" stroke-linecap="round" stroke-linejoin="round"/>
<path d="M3.44547 1235.8C5.34808 1235.8 6.89046 1234.35 6.89046 1232.57C6.89046 1230.8 5.34808 1229.35 3.44547 1229.35C1.54286 1229.35 0.000488281 1230.8 0.000488281 1232.57C0.000488281 1234.35 1.54286 1235.8 3.44547 1235.8Z" fill="#9871F5" fill-opacity="0.5"/>
<path d="M27.5088 1235.8C29.4114 1235.8 30.9538 1234.35 30.9538 1232.57C30.9538 1230.8 29.4114 1229.35 27.5088 1229.35C25.6062 1229.35 24.0638 1230.8 24.0638 1232.57C24.0638 1234.35 25.6062 1235.8 27.5088 1235.8Z" fill="#9871F5" fill-opacity="0.5"/>
<path d="M51.555 1235.8C53.4576 1235.8 54.9999 1234.35 54.9999 1232.57C54.9999 1230.8 53.4576 1229.35 51.555 1229.35C49.6524 1229.35 48.11 1230.8 48.11 1232.57C48.11 1234.35 49.6524 1235.8 51.555 1235.8Z" fill="#9871F5" fill-opacity="0.5"/>
<path d="M75.6193 1235.8C77.5219 1235.8 79.0643 1234.35 79.0643 1232.57C79.0643 1230.8 77.5219 1229.35 75.6193 1229.35C73.7167 1229.35 72.1743 1230.8 72.1743 1232.57C72.1743 1234.35 73.7167 1235.8 75.6193 1235.8Z" fill="#9871F5" fill-opacity="0.5"/>
<path d="M99.6651 1235.8C101.568 1235.8 103.11 1234.35 103.11 1232.57C103.11 1230.8 101.568 1229.35 99.6651 1229.35C97.7625 1229.35 96.2201 1230.8 96.2201 1232.57C96.2201 1234.35 97.7625 1235.8 99.6651 1235.8Z" fill="#9871F5" fill-opacity="0.5"/>
<path d="M123.729 1235.8C125.631 1235.8 127.174 1234.35 127.174 1232.57C127.174 1230.8 125.631 1229.35 123.729 1229.35C121.826 1229.35 120.284 1230.8 120.284 1232.57C120.284 1234.35 121.826 1235.8 123.729 1235.8Z" fill="#9871F5" fill-opacity="0.5"/>
<path d="M3.44498 1258.28C5.3476 1258.28 6.88997 1256.83 6.88997 1255.06C6.88997 1253.28 5.3476 1251.83 3.44498 1251.83C1.54237 1251.83 0 1253.28 0 1255.06C0 1256.83 1.54237 1258.28 3.44498 1258.28Z" fill="#9871F5" fill-opacity="0.5"/>
<path d="M27.5089 1258.28C29.4116 1258.28 30.9539 1256.83 30.9539 1255.06C30.9539 1253.28 29.4116 1251.83 27.5089 1251.83C25.6063 1251.83 24.064 1253.28 24.064 1255.06C24.064 1256.83 25.6063 1258.28 27.5089 1258.28Z" fill="#9871F5" fill-opacity="0.5"/>
<path d="M51.5553 1258.28C53.4579 1258.28 55.0003 1256.83 55.0003 1255.06C55.0003 1253.28 53.4579 1251.83 51.5553 1251.83C49.6527 1251.83 48.1104 1253.28 48.1104 1255.06C48.1104 1256.83 49.6527 1258.28 51.5553 1258.28Z" fill="#9871F5" fill-opacity="0.5"/>
<path d="M75.6193 1258.28C77.5219 1258.28 79.0643 1256.83 79.0643 1255.06C79.0643 1253.28 77.5219 1251.83 75.6193 1251.83C73.7167 1251.83 72.1743 1253.28 72.1743 1255.06C72.1743 1256.83 73.7167 1258.28 75.6193 1258.28Z" fill="#9871F5" fill-opacity="0.5"/>
<path d="M99.6649 1258.28C101.568 1258.28 103.11 1256.83 103.11 1255.06C103.11 1253.28 101.568 1251.83 99.6649 1251.83C97.7623 1251.83 96.22 1253.28 96.22 1255.06C96.22 1256.83 97.7623 1258.28 99.6649 1258.28Z" fill="#9871F5" fill-opacity="0.5"/>
<path d="M123.729 1258.28C125.631 1258.28 127.174 1256.83 127.174 1255.06C127.174 1253.28 125.631 1251.83 123.729 1251.83C121.826 1251.83 120.284 1253.28 120.284 1255.06C120.284 1256.83 121.826 1258.28 123.729 1258.28Z" fill="#9871F5" fill-opacity="0.5"/>
<path d="M3.44498 1280.78C5.3476 1280.78 6.88997 1279.33 6.88997 1277.55C6.88997 1275.78 5.3476 1274.33 3.44498 1274.33C1.54237 1274.33 0 1275.78 0 1277.55C0 1279.33 1.54237 1280.78 3.44498 1280.78Z" fill="#9871F5" fill-opacity="0.5"/>
<path d="M27.5089 1280.78C29.4116 1280.78 30.9539 1279.33 30.9539 1277.55C30.9539 1275.78 29.4116 1274.33 27.5089 1274.33C25.6063 1274.33 24.064 1275.78 24.064 1277.55C24.064 1279.33 25.6063 1280.78 27.5089 1280.78Z" fill="#9871F5" fill-opacity="0.5"/>
<path d="M51.5553 1280.78C53.4579 1280.78 55.0003 1279.33 55.0003 1277.55C55.0003 1275.78 53.4579 1274.33 51.5553 1274.33C49.6527 1274.33 48.1104 1275.78 48.1104 1277.55C48.1104 1279.33 49.6527 1280.78 51.5553 1280.78Z" fill="#9871F5" fill-opacity="0.5"/>
<path d="M75.6193 1280.78C77.5219 1280.78 79.0643 1279.33 79.0643 1277.55C79.0643 1275.78 77.5219 1274.33 75.6193 1274.33C73.7167 1274.33 72.1743 1275.78 72.1743 1277.55C72.1743 1279.33 73.7167 1280.78 75.6193 1280.78Z" fill="#9871F5" fill-opacity="0.5"/>
<path d="M99.6649 1280.78C101.568 1280.78 103.11 1279.33 103.11 1277.55C103.11 1275.78 101.568 1274.33 99.6649 1274.33C97.7623 1274.33 96.22 1275.78 96.22 1277.55C96.22 1279.33 97.7623 1280.78 99.6649 1280.78Z" fill="#9871F5" fill-opacity="0.5"/>
<path d="M123.729 1280.78C125.631 1280.78 127.174 1279.33 127.174 1277.55C127.174 1275.78 125.631 1274.33 123.729 1274.33C121.826 1274.33 120.284 1275.78 120.284 1277.55C120.284 1279.33 121.826 1280.78 123.729 1280.78Z" fill="#9871F5" fill-opacity="0.5"/>
<path d="M3.44498 1303.26C5.3476 1303.26 6.88997 1301.81 6.88997 1300.04C6.88997 1298.26 5.3476 1296.81 3.44498 1296.81C1.54237 1296.81 0 1298.26 0 1300.04C0 1301.81 1.54237 1303.26 3.44498 1303.26Z" fill="#9871F5" fill-opacity="0.5"/>
<path d="M27.5089 1303.26C29.4116 1303.26 30.9539 1301.81 30.9539 1300.04C30.9539 1298.26 29.4116 1296.81 27.5089 1296.81C25.6063 1296.81 24.064 1298.26 24.064 1300.04C24.064 1301.81 25.6063 1303.26 27.5089 1303.26Z" fill="#9871F5" fill-opacity="0.5"/>
<path d="M51.5553 1303.26C53.4579 1303.26 55.0003 1301.81 55.0003 1300.04C55.0003 1298.26 53.4579 1296.81 51.5553 1296.81C49.6527 1296.81 48.1104 1298.26 48.1104 1300.04C48.1104 1301.81 49.6527 1303.26 51.5553 1303.26Z" fill="#9871F5" fill-opacity="0.5"/>
<path d="M75.6193 1303.26C77.5219 1303.26 79.0643 1301.81 79.0643 1300.04C79.0643 1298.26 77.5219 1296.81 75.6193 1296.81C73.7167 1296.81 72.1743 1298.26 72.1743 1300.04C72.1743 1301.81 73.7167 1303.26 75.6193 1303.26Z" fill="#9871F5" fill-opacity="0.5"/>
<path d="M99.6649 1303.26C101.568 1303.26 103.11 1301.81 103.11 1300.04C103.11 1298.26 101.568 1296.81 99.6649 1296.81C97.7623 1296.81 96.22 1298.26 96.22 1300.04C96.22 1301.81 97.7623 1303.26 99.6649 1303.26Z" fill="#9871F5" fill-opacity="0.5"/>
<path d="M123.729 1303.26C125.631 1303.26 127.174 1301.81 127.174 1300.04C127.174 1298.26 125.631 1296.81 123.729 1296.81C121.826 1296.81 120.284 1298.26 120.284 1300.04C120.284 1301.81 121.826 1303.26 123.729 1303.26Z" fill="#9871F5" fill-opacity="0.5"/>
<path d="M1038.53 932.923C1041.12 932.923 1043.22 930.962 1043.22 928.542C1043.22 926.123 1041.12 924.161 1038.53 924.161C1035.95 924.161 1033.85 926.123 1033.85 928.542C1033.85 930.962 1035.95 932.923 1038.53 932.923Z" fill="#9871F5" fill-opacity="0.5"/>
<path d="M1071.24 932.923C1073.83 932.923 1075.93 930.962 1075.93 928.542C1075.93 926.123 1073.83 924.161 1071.24 924.161C1068.65 924.161 1066.56 926.123 1066.56 928.542C1066.56 930.962 1068.65 932.923 1071.24 932.923Z" fill="#9871F5" fill-opacity="0.5"/>
<path d="M1103.97 932.923C1106.56 932.923 1108.66 930.962 1108.66 928.542C1108.66 926.123 1106.56 924.161 1103.97 924.161C1101.38 924.161 1099.29 926.123 1099.29 928.542C1099.29 930.962 1101.38 932.923 1103.97 932.923Z" fill="#9871F5" fill-opacity="0.5"/>
<path d="M1038.53 963.525C1041.12 963.525 1043.22 961.564 1043.22 959.144C1043.22 956.725 1041.12 954.763 1038.53 954.763C1035.95 954.763 1033.85 956.725 1033.85 959.144C1033.85 961.564 1035.95 963.525 1038.53 963.525Z" fill="#9871F5" fill-opacity="0.5"/>
<path d="M1071.24 963.525C1073.83 963.525 1075.93 961.564 1075.93 959.144C1075.93 956.725 1073.83 954.763 1071.24 954.763C1068.65 954.763 1066.56 956.725 1066.56 959.144C1066.56 961.564 1068.65 963.525 1071.24 963.525Z" fill="#9871F5" fill-opacity="0.5"/>
<path d="M1103.97 963.525C1106.56 963.525 1108.66 961.564 1108.66 959.144C1108.66 956.725 1106.56 954.763 1103.97 954.763C1101.38 954.763 1099.29 956.725 1099.29 959.144C1099.29 961.564 1101.38 963.525 1103.97 963.525Z" fill="#9871F5" fill-opacity="0.5"/>
<path d="M320.096 772.933C322.684 772.933 324.782 770.971 324.782 768.552C324.782 766.132 322.684 764.171 320.096 764.171C317.509 764.171 315.411 766.132 315.411 768.552C315.411 770.971 317.509 772.933 320.096 772.933Z" fill="#9871F5" fill-opacity="0.5"/>
<path d="M352.802 772.933C355.39 772.933 357.488 770.971 357.488 768.552C357.488 766.132 355.39 764.171 352.802 764.171C350.214 764.171 348.116 766.132 348.116 768.552C348.116 770.971 350.214 772.933 352.802 772.933Z" fill="#9871F5" fill-opacity="0.5"/>
<path d="M385.533 772.933C388.121 772.933 390.219 770.971 390.219 768.552C390.219 766.132 388.121 764.171 385.533 764.171C382.945 764.171 380.847 766.132 380.847 768.552C380.847 770.971 382.945 772.933 385.533 772.933Z" fill="#9871F5" fill-opacity="0.5"/>
<path d="M320.095 803.535C322.683 803.535 324.781 801.573 324.781 799.154C324.781 796.734 322.683 794.773 320.095 794.773C317.507 794.773 315.409 796.734 315.409 799.154C315.409 801.573 317.507 803.535 320.095 803.535Z" fill="#9871F5" fill-opacity="0.5"/>
<path d="M352.802 803.535C355.39 803.535 357.488 801.573 357.488 799.154C357.488 796.734 355.39 794.773 352.802 794.773C350.214 794.773 348.116 796.734 348.116 799.154C348.116 801.573 350.214 803.535 352.802 803.535Z" fill="#9871F5" fill-opacity="0.5"/>
<path d="M385.535 803.535C388.123 803.535 390.22 801.573 390.22 799.154C390.22 796.734 388.123 794.773 385.535 794.773C382.947 794.773 380.849 796.734 380.849 799.154C380.849 801.573 382.947 803.535 385.535 803.535Z" fill="#9871F5" fill-opacity="0.5"/>
<path d="M1457.77 1232.38C1459.46 1232.38 1460.83 1231.1 1460.83 1229.51C1460.83 1227.93 1459.46 1226.64 1457.77 1226.64C1456.07 1226.64 1454.7 1227.93 1454.7 1229.51C1454.7 1231.1 1456.07 1232.38 1457.77 1232.38Z" fill="#9871F5" fill-opacity="0.5"/>
<path d="M1457.77 1252.43C1459.46 1252.43 1460.84 1251.14 1460.84 1249.56C1460.84 1247.97 1459.46 1246.69 1457.77 1246.69C1456.07 1246.69 1454.7 1247.97 1454.7 1249.56C1454.7 1251.14 1456.07 1252.43 1457.77 1252.43Z" fill="#9871F5" fill-opacity="0.5"/>
<path d="M1457.77 1272.46C1459.46 1272.46 1460.84 1271.17 1460.84 1269.59C1460.84 1268 1459.46 1266.72 1457.77 1266.72C1456.07 1266.72 1454.7 1268 1454.7 1269.59C1454.7 1271.17 1456.07 1272.46 1457.77 1272.46Z" fill="#9871F5" fill-opacity="0.5"/>
<path d="M1457.77 1292.5C1459.46 1292.5 1460.84 1291.22 1460.84 1289.63C1460.84 1288.05 1459.46 1286.76 1457.77 1286.76C1456.07 1286.76 1454.7 1288.05 1454.7 1289.63C1454.7 1291.22 1456.07 1292.5 1457.77 1292.5Z" fill="#9871F5" fill-opacity="0.5"/>
<path d="M1457.77 1312.53C1459.46 1312.53 1460.84 1311.25 1460.84 1309.66C1460.84 1308.08 1459.46 1306.79 1457.77 1306.79C1456.07 1306.79 1454.7 1308.08 1454.7 1309.66C1454.7 1311.25 1456.07 1312.53 1457.77 1312.53Z" fill="#9871F5" fill-opacity="0.5"/>
<path d="M1457.77 1332.58C1459.46 1332.58 1460.84 1331.29 1460.84 1329.71C1460.84 1328.12 1459.46 1326.84 1457.77 1326.84C1456.07 1326.84 1454.7 1328.12 1454.7 1329.71C1454.7 1331.29 1456.07 1332.58 1457.77 1332.58Z" fill="#9871F5" fill-opacity="0.5"/>
<path d="M1457.77 1352.61C1459.46 1352.61 1460.84 1351.32 1460.84 1349.74C1460.84 1348.15 1459.46 1346.87 1457.77 1346.87C1456.07 1346.87 1454.7 1348.15 1454.7 1349.74C1454.7 1351.32 1456.07 1352.61 1457.77 1352.61Z" fill="#9871F5" fill-opacity="0.5"/>
<path d="M1436.33 1232.38C1438.02 1232.38 1439.4 1231.1 1439.4 1229.51C1439.4 1227.93 1438.02 1226.64 1436.33 1226.64C1434.63 1226.64 1433.26 1227.93 1433.26 1229.51C1433.26 1231.1 1434.63 1232.38 1436.33 1232.38Z" fill="#9871F5" fill-opacity="0.5"/>
<path d="M1436.33 1252.43C1438.02 1252.43 1439.4 1251.14 1439.4 1249.56C1439.4 1247.97 1438.02 1246.69 1436.33 1246.69C1434.63 1246.69 1433.26 1247.97 1433.26 1249.56C1433.26 1251.14 1434.63 1252.43 1436.33 1252.43Z" fill="#9871F5" fill-opacity="0.5"/>
<path d="M1436.33 1272.46C1438.02 1272.46 1439.4 1271.17 1439.4 1269.59C1439.4 1268 1438.02 1266.72 1436.33 1266.72C1434.63 1266.72 1433.26 1268 1433.26 1269.59C1433.26 1271.17 1434.63 1272.46 1436.33 1272.46Z" fill="#9871F5" fill-opacity="0.5"/>
<path d="M1436.33 1292.5C1438.02 1292.5 1439.4 1291.22 1439.4 1289.63C1439.4 1288.05 1438.02 1286.76 1436.33 1286.76C1434.63 1286.76 1433.26 1288.05 1433.26 1289.63C1433.26 1291.22 1434.63 1292.5 1436.33 1292.5Z" fill="#9871F5" fill-opacity="0.5"/>
<path d="M1436.33 1312.53C1438.02 1312.53 1439.4 1311.25 1439.4 1309.66C1439.4 1308.08 1438.02 1306.79 1436.33 1306.79C1434.63 1306.79 1433.26 1308.08 1433.26 1309.66C1433.26 1311.25 1434.63 1312.53 1436.33 1312.53Z" fill="#9871F5" fill-opacity="0.5"/>
<path d="M1436.33 1332.58C1438.02 1332.58 1439.4 1331.29 1439.4 1329.71C1439.4 1328.12 1438.02 1326.84 1436.33 1326.84C1434.63 1326.84 1433.26 1328.12 1433.26 1329.71C1433.26 1331.29 1434.63 1332.58 1436.33 1332.58Z" fill="#9871F5" fill-opacity="0.5"/>
<path d="M1436.33 1352.61C1438.02 1352.61 1439.4 1351.32 1439.4 1349.74C1439.4 1348.15 1438.02 1346.87 1436.33 1346.87C1434.63 1346.87 1433.26 1348.15 1433.26 1349.74C1433.26 1351.32 1434.63 1352.61 1436.33 1352.61Z" fill="#9871F5" fill-opacity="0.5"/>
<path d="M1414.9 1232.38C1416.6 1232.38 1417.97 1231.1 1417.97 1229.51C1417.97 1227.93 1416.6 1226.64 1414.9 1226.64C1413.21 1226.64 1411.83 1227.93 1411.83 1229.51C1411.83 1231.1 1413.21 1232.38 1414.9 1232.38Z" fill="#9871F5" fill-opacity="0.5"/>
<path d="M1414.9 1252.43C1416.6 1252.43 1417.97 1251.14 1417.97 1249.56C1417.97 1247.97 1416.6 1246.69 1414.9 1246.69C1413.21 1246.69 1411.83 1247.97 1411.83 1249.56C1411.83 1251.14 1413.21 1252.43 1414.9 1252.43Z" fill="#9871F5" fill-opacity="0.5"/>
<path d="M1414.9 1272.46C1416.6 1272.46 1417.97 1271.17 1417.97 1269.59C1417.97 1268 1416.6 1266.72 1414.9 1266.72C1413.21 1266.72 1411.83 1268 1411.83 1269.59C1411.83 1271.17 1413.21 1272.46 1414.9 1272.46Z" fill="#9871F5" fill-opacity="0.5"/>
<path d="M1414.9 1292.5C1416.6 1292.5 1417.97 1291.22 1417.97 1289.63C1417.97 1288.05 1416.6 1286.76 1414.9 1286.76C1413.21 1286.76 1411.83 1288.05 1411.83 1289.63C1411.83 1291.22 1413.21 1292.5 1414.9 1292.5Z" fill="#9871F5" fill-opacity="0.5"/>
<path d="M1414.9 1312.53C1416.6 1312.53 1417.97 1311.25 1417.97 1309.66C1417.97 1308.08 1416.6 1306.79 1414.9 1306.79C1413.21 1306.79 1411.83 1308.08 1411.83 1309.66C1411.83 1311.25 1413.21 1312.53 1414.9 1312.53Z" fill="#9871F5" fill-opacity="0.5"/>
<path d="M1414.9 1332.58C1416.6 1332.58 1417.97 1331.29 1417.97 1329.71C1417.97 1328.12 1416.6 1326.84 1414.9 1326.84C1413.21 1326.84 1411.83 1328.12 1411.83 1329.71C1411.83 1331.29 1413.21 1332.58 1414.9 1332.58Z" fill="#9871F5" fill-opacity="0.5"/>
<path d="M1414.9 1352.61C1416.6 1352.61 1417.97 1351.32 1417.97 1349.74C1417.97 1348.15 1416.6 1346.87 1414.9 1346.87C1413.21 1346.87 1411.83 1348.15 1411.83 1349.74C1411.83 1351.32 1413.21 1352.61 1414.9 1352.61Z" fill="#9871F5" fill-opacity="0.5"/>
<path d="M1393.46 1232.38C1395.16 1232.38 1396.53 1231.1 1396.53 1229.51C1396.53 1227.93 1395.16 1226.64 1393.46 1226.64C1391.77 1226.64 1390.39 1227.93 1390.39 1229.51C1390.39 1231.1 1391.77 1232.38 1393.46 1232.38Z" fill="#9871F5" fill-opacity="0.5"/>
<path d="M1393.46 1252.43C1395.16 1252.43 1396.53 1251.14 1396.53 1249.56C1396.53 1247.97 1395.16 1246.69 1393.46 1246.69C1391.77 1246.69 1390.39 1247.97 1390.39 1249.56C1390.39 1251.14 1391.77 1252.43 1393.46 1252.43Z" fill="#9871F5" fill-opacity="0.5"/>
<path d="M1393.46 1272.46C1395.16 1272.46 1396.53 1271.17 1396.53 1269.59C1396.53 1268 1395.16 1266.72 1393.46 1266.72C1391.77 1266.72 1390.39 1268 1390.39 1269.59C1390.39 1271.17 1391.77 1272.46 1393.46 1272.46Z" fill="#9871F5" fill-opacity="0.5"/>
<path d="M1393.46 1292.5C1395.16 1292.5 1396.53 1291.22 1396.53 1289.63C1396.53 1288.05 1395.16 1286.76 1393.46 1286.76C1391.77 1286.76 1390.39 1288.05 1390.39 1289.63C1390.39 1291.22 1391.77 1292.5 1393.46 1292.5Z" fill="#9871F5" fill-opacity="0.5"/>
<path d="M1393.46 1312.53C1395.16 1312.53 1396.53 1311.25 1396.53 1309.66C1396.53 1308.08 1395.16 1306.79 1393.46 1306.79C1391.77 1306.79 1390.39 1308.08 1390.39 1309.66C1390.39 1311.25 1391.77 1312.53 1393.46 1312.53Z" fill="#9871F5" fill-opacity="0.5"/>
<path d="M1393.46 1332.58C1395.16 1332.58 1396.53 1331.29 1396.53 1329.71C1396.53 1328.12 1395.16 1326.84 1393.46 1326.84C1391.77 1326.84 1390.39 1328.12 1390.39 1329.71C1390.39 1331.29 1391.77 1332.58 1393.46 1332.58Z" fill="#9871F5" fill-opacity="0.5"/>
<path d="M1393.46 1352.61C1395.16 1352.61 1396.53 1351.32 1396.53 1349.74C1396.53 1348.15 1395.16 1346.87 1393.46 1346.87C1391.77 1346.87 1390.39 1348.15 1390.39 1349.74C1390.39 1351.32 1391.77 1352.61 1393.46 1352.61Z" fill="#9871F5" fill-opacity="0.5"/>
<path d="M1384.66 239.551C1384.66 246.939 1378.25 252.929 1370.35 252.929C1362.45 252.929 1356.04 246.939 1356.04 239.551C1356.04 232.162 1362.45 226.172 1370.35 226.172C1378.23 226.172 1384.66 232.162 1384.66 239.551Z" stroke="#F90CC5" stroke-opacity="0.5" stroke-width="3" stroke-miterlimit="10" stroke-linecap="round" stroke-linejoin="round"/>
<path d="M1380.69 248.78L1390.79 258.241" stroke="#F90CC5" stroke-opacity="0.5" stroke-width="3" stroke-miterlimit="10" stroke-linecap="round" stroke-linejoin="round"/>
<path d="M155.538 161.923C155.538 169.311 149.131 175.301 141.229 175.301C133.327 175.301 126.92 169.311 126.92 161.923C126.92 154.535 133.327 148.545 141.229 148.545C149.107 148.545 155.538 154.535 155.538 161.923Z" stroke="#F90CC5" stroke-opacity="0.5" stroke-width="3" stroke-miterlimit="10" stroke-linecap="round" stroke-linejoin="round"/>
<path d="M151.575 171.153L161.669 180.614" stroke="#F90CC5" stroke-opacity="0.5" stroke-width="3" stroke-miterlimit="10" stroke-linecap="round" stroke-linejoin="round"/>
<path d="M341.333 200.163L356.387 214.238" stroke="#F90CC5" stroke-opacity="0.5" stroke-width="3" stroke-miterlimit="10" stroke-linecap="round" stroke-linejoin="round"/>
<path d="M356.387 200.163L341.333 214.238" stroke="#F90CC5" stroke-opacity="0.5" stroke-width="3" stroke-miterlimit="10" stroke-linecap="round" stroke-linejoin="round"/>
<path d="M814.959 188.681L830.013 202.756" stroke="#F90CC5" stroke-opacity="0.5" stroke-width="3" stroke-miterlimit="10" stroke-linecap="round" stroke-linejoin="round"/>
<path d="M830.013 188.681L814.959 202.756" stroke="#F90CC5" stroke-opacity="0.5" stroke-width="3" stroke-miterlimit="10" stroke-linecap="round" stroke-linejoin="round"/>
<path d="M1204.28 532.073L1219.33 546.148" stroke="#F90CC5" stroke-opacity="0.5" stroke-width="3" stroke-miterlimit="10" stroke-linecap="round" stroke-linejoin="round"/>
<path d="M1219.33 532.073L1204.28 546.148" stroke="#F90CC5" stroke-opacity="0.5" stroke-width="3" stroke-miterlimit="10" stroke-linecap="round" stroke-linejoin="round"/>
<path d="M381.737 655.813V675.717" stroke="#F90CC5" stroke-opacity="0.5" stroke-width="3" stroke-miterlimit="10" stroke-linecap="round" stroke-linejoin="round"/>
<path d="M392.409 665.763H371.095" stroke="#F90CC5" stroke-opacity="0.5" stroke-width="3" stroke-miterlimit="10" stroke-linecap="round" stroke-linejoin="round"/>
<path d="M742.578 545.243V565.147" stroke="#F90CC5" stroke-opacity="0.5" stroke-width="3" stroke-miterlimit="10" stroke-linecap="round" stroke-linejoin="round"/>
<path d="M753.25 555.193H731.936" stroke="#F90CC5" stroke-opacity="0.5" stroke-width="3" stroke-miterlimit="10" stroke-linecap="round" stroke-linejoin="round"/>
<path d="M94.2921 327.297C94.2921 333.963 88.5086 339.394 81.354 339.394C74.2244 339.394 68.416 333.987 68.416 327.297C68.416 320.632 74.1995 315.201 81.354 315.201C88.5086 315.224 94.2921 320.632 94.2921 327.297Z" stroke="#F90CC5" stroke-opacity="0.5" stroke-width="3" stroke-miterlimit="10" stroke-linecap="round" stroke-linejoin="round"/>
<path d="M855.726 14.0963C855.726 20.7621 849.943 26.1926 842.788 26.1926C835.659 26.1926 829.85 20.7854 829.85 14.0963C829.85 7.43053 835.634 2 842.788 2C849.943 2.02331 855.726 7.43053 855.726 14.0963Z" stroke="#F90CC5" stroke-opacity="0.5" stroke-width="3" stroke-miterlimit="10" stroke-linecap="round" stroke-linejoin="round"/>
<path d="M324.567 536.804C324.567 543.47 318.784 548.901 311.629 548.901C304.5 548.901 298.691 543.493 298.691 536.804C298.691 530.139 304.475 524.708 311.629 524.708C318.784 524.731 324.567 530.139 324.567 536.804Z" stroke="#F90CC5" stroke-opacity="0.5" stroke-width="3" stroke-miterlimit="10" stroke-linecap="round" stroke-linejoin="round"/>
<path d="M1033.6 689.883C1033.6 696.549 1027.82 701.979 1020.66 701.979C1013.53 701.979 1007.72 696.572 1007.72 689.883C1007.72 683.217 1013.51 677.787 1020.66 677.787C1027.82 677.81 1033.6 683.217 1033.6 689.883Z" stroke="#F90CC5" stroke-opacity="0.5" stroke-width="3" stroke-miterlimit="10" stroke-linecap="round" stroke-linejoin="round"/>
<path d="M742.077 368.867C742.077 375.533 736.293 380.963 729.139 380.963C722.009 380.963 716.201 375.556 716.201 368.867C716.201 362.201 721.984 356.771 729.139 356.771C736.293 356.794 742.077 362.201 742.077 368.867Z" stroke="#F90CC5" stroke-opacity="0.5" stroke-width="3" stroke-miterlimit="10" stroke-linecap="round" stroke-linejoin="round"/>
<path d="M3.44547 491.856C5.34808 491.856 6.89046 490.414 6.89046 488.635C6.89046 486.856 5.34808 485.414 3.44547 485.414C1.54286 485.414 0.000488281 486.856 0.000488281 488.635C0.000488281 490.414 1.54286 491.856 3.44547 491.856Z" fill="#9871F5" fill-opacity="0.5"/>
<path d="M27.5088 491.856C29.4114 491.856 30.9538 490.414 30.9538 488.635C30.9538 486.856 29.4114 485.414 27.5088 485.414C25.6062 485.414 24.0638 486.856 24.0638 488.635C24.0638 490.414 25.6062 491.856 27.5088 491.856Z" fill="#9871F5" fill-opacity="0.5"/>
<path d="M51.555 491.856C53.4576 491.856 54.9999 490.414 54.9999 488.635C54.9999 486.856 53.4576 485.414 51.555 485.414C49.6524 485.414 48.11 486.856 48.11 488.635C48.11 490.414 49.6524 491.856 51.555 491.856Z" fill="#9871F5" fill-opacity="0.5"/>
<path d="M75.6193 491.856C77.5219 491.856 79.0643 490.414 79.0643 488.635C79.0643 486.856 77.5219 485.414 75.6193 485.414C73.7167 485.414 72.1743 486.856 72.1743 488.635C72.1743 490.414 73.7167 491.856 75.6193 491.856Z" fill="#9871F5" fill-opacity="0.5"/>
<path d="M99.6651 491.856C101.568 491.856 103.11 490.414 103.11 488.635C103.11 486.856 101.568 485.414 99.6651 485.414C97.7625 485.414 96.2201 486.856 96.2201 488.635C96.2201 490.414 97.7625 491.856 99.6651 491.856Z" fill="#9871F5" fill-opacity="0.5"/>
<path d="M123.729 491.856C125.631 491.856 127.174 490.414 127.174 488.635C127.174 486.856 125.631 485.414 123.729 485.414C121.826 485.414 120.284 486.856 120.284 488.635C120.284 490.414 121.826 491.856 123.729 491.856Z" fill="#9871F5" fill-opacity="0.5"/>
<path d="M3.44498 514.337C5.3476 514.337 6.88997 512.895 6.88997 511.116C6.88997 509.338 5.3476 507.896 3.44498 507.896C1.54237 507.896 0 509.338 0 511.116C0 512.895 1.54237 514.337 3.44498 514.337Z" fill="#9871F5" fill-opacity="0.5"/>
<path d="M27.5089 514.337C29.4116 514.337 30.9539 512.895 30.9539 511.116C30.9539 509.338 29.4116 507.896 27.5089 507.896C25.6063 507.896 24.064 509.338 24.064 511.116C24.064 512.895 25.6063 514.337 27.5089 514.337Z" fill="#9871F5" fill-opacity="0.5"/>
<path d="M51.5553 514.337C53.4579 514.337 55.0003 512.895 55.0003 511.116C55.0003 509.338 53.4579 507.896 51.5553 507.896C49.6527 507.896 48.1104 509.338 48.1104 511.116C48.1104 512.895 49.6527 514.337 51.5553 514.337Z" fill="#9871F5" fill-opacity="0.5"/>
<path d="M75.6193 514.337C77.5219 514.337 79.0643 512.895 79.0643 511.116C79.0643 509.338 77.5219 507.896 75.6193 507.896C73.7167 507.896 72.1743 509.338 72.1743 511.116C72.1743 512.895 73.7167 514.337 75.6193 514.337Z" fill="#9871F5" fill-opacity="0.5"/>
<path d="M99.6649 514.337C101.568 514.337 103.11 512.895 103.11 511.116C103.11 509.338 101.568 507.896 99.6649 507.896C97.7623 507.896 96.22 509.338 96.22 511.116C96.22 512.895 97.7623 514.337 99.6649 514.337Z" fill="#9871F5" fill-opacity="0.5"/>
<path d="M123.729 514.337C125.631 514.337 127.174 512.895 127.174 511.116C127.174 509.338 125.631 507.896 123.729 507.896C121.826 507.896 120.284 509.338 120.284 511.116C120.284 512.895 121.826 514.337 123.729 514.337Z" fill="#9871F5" fill-opacity="0.5"/>
<path d="M3.44498 536.836C5.3476 536.836 6.88997 535.394 6.88997 533.615C6.88997 531.836 5.3476 530.394 3.44498 530.394C1.54237 530.394 0 531.836 0 533.615C0 535.394 1.54237 536.836 3.44498 536.836Z" fill="#9871F5" fill-opacity="0.5"/>
<path d="M27.5089 536.836C29.4116 536.836 30.9539 535.394 30.9539 533.615C30.9539 531.836 29.4116 530.394 27.5089 530.394C25.6063 530.394 24.064 531.836 24.064 533.615C24.064 535.394 25.6063 536.836 27.5089 536.836Z" fill="#9871F5" fill-opacity="0.5"/>
<path d="M51.5553 536.836C53.4579 536.836 55.0003 535.394 55.0003 533.615C55.0003 531.836 53.4579 530.394 51.5553 530.394C49.6527 530.394 48.1104 531.836 48.1104 533.615C48.1104 535.394 49.6527 536.836 51.5553 536.836Z" fill="#9871F5" fill-opacity="0.5"/>
<path d="M75.6193 536.836C77.5219 536.836 79.0643 535.394 79.0643 533.615C79.0643 531.836 77.5219 530.394 75.6193 530.394C73.7167 530.394 72.1743 531.836 72.1743 533.615C72.1743 535.394 73.7167 536.836 75.6193 536.836Z" fill="#9871F5" fill-opacity="0.5"/>
<path d="M99.6649 536.836C101.568 536.836 103.11 535.394 103.11 533.615C103.11 531.836 101.568 530.394 99.6649 530.394C97.7623 530.394 96.22 531.836 96.22 533.615C96.22 535.394 97.7623 536.836 99.6649 536.836Z" fill="#9871F5" fill-opacity="0.5"/>
<path d="M123.729 536.836C125.631 536.836 127.174 535.394 127.174 533.615C127.174 531.836 125.631 530.394 123.729 530.394C121.826 530.394 120.284 531.836 120.284 533.615C120.284 535.394 121.826 536.836 123.729 536.836Z" fill="#9871F5" fill-opacity="0.5"/>
<path d="M3.44498 559.317C5.3476 559.317 6.88997 557.875 6.88997 556.096C6.88997 554.318 5.3476 552.875 3.44498 552.875C1.54237 552.875 0 554.318 0 556.096C0 557.875 1.54237 559.317 3.44498 559.317Z" fill="#9871F5" fill-opacity="0.5"/>
<path d="M27.5089 559.317C29.4116 559.317 30.9539 557.875 30.9539 556.096C30.9539 554.318 29.4116 552.875 27.5089 552.875C25.6063 552.875 24.064 554.318 24.064 556.096C24.064 557.875 25.6063 559.317 27.5089 559.317Z" fill="#9871F5" fill-opacity="0.5"/>
<path d="M51.5553 559.317C53.4579 559.317 55.0003 557.875 55.0003 556.096C55.0003 554.318 53.4579 552.875 51.5553 552.875C49.6527 552.875 48.1104 554.318 48.1104 556.096C48.1104 557.875 49.6527 559.317 51.5553 559.317Z" fill="#9871F5" fill-opacity="0.5"/>
<path d="M75.6193 559.317C77.5219 559.317 79.0643 557.875 79.0643 556.096C79.0643 554.318 77.5219 552.875 75.6193 552.875C73.7167 552.875 72.1743 554.318 72.1743 556.096C72.1743 557.875 73.7167 559.317 75.6193 559.317Z" fill="#9871F5" fill-opacity="0.5"/>
<path d="M99.6649 559.317C101.568 559.317 103.11 557.875 103.11 556.096C103.11 554.318 101.568 552.875 99.6649 552.875C97.7623 552.875 96.22 554.318 96.22 556.096C96.22 557.875 97.7623 559.317 99.6649 559.317Z" fill="#9871F5" fill-opacity="0.5"/>
<path d="M123.729 559.317C125.631 559.317 127.174 557.875 127.174 556.096C127.174 554.318 125.631 552.875 123.729 552.875C121.826 552.875 120.284 554.318 120.284 556.096C120.284 557.875 121.826 559.317 123.729 559.317Z" fill="#9871F5" fill-opacity="0.5"/>
<path d="M1038.53 188.985C1041.12 188.985 1043.22 187.023 1043.22 184.604C1043.22 182.184 1041.12 180.223 1038.53 180.223C1035.95 180.223 1033.85 182.184 1033.85 184.604C1033.85 187.023 1035.95 188.985 1038.53 188.985Z" fill="#9871F5" fill-opacity="0.5"/>
<path d="M1071.24 188.985C1073.83 188.985 1075.93 187.023 1075.93 184.604C1075.93 182.184 1073.83 180.223 1071.24 180.223C1068.65 180.223 1066.56 182.184 1066.56 184.604C1066.56 187.023 1068.65 188.985 1071.24 188.985Z" fill="#9871F5" fill-opacity="0.5"/>
<path d="M1103.97 188.985C1106.56 188.985 1108.66 187.023 1108.66 184.604C1108.66 182.184 1106.56 180.223 1103.97 180.223C1101.38 180.223 1099.29 182.184 1099.29 184.604C1099.29 187.023 1101.38 188.985 1103.97 188.985Z" fill="#9871F5" fill-opacity="0.5"/>
<path d="M1038.53 219.587C1041.12 219.587 1043.22 217.625 1043.22 215.206C1043.22 212.786 1041.12 210.825 1038.53 210.825C1035.95 210.825 1033.85 212.786 1033.85 215.206C1033.85 217.625 1035.95 219.587 1038.53 219.587Z" fill="#9871F5" fill-opacity="0.5"/>
<path d="M1071.24 219.587C1073.83 219.587 1075.93 217.625 1075.93 215.206C1075.93 212.786 1073.83 210.825 1071.24 210.825C1068.65 210.825 1066.56 212.786 1066.56 215.206C1066.56 217.625 1068.65 219.587 1071.24 219.587Z" fill="#9871F5" fill-opacity="0.5"/>
<path d="M1103.97 219.587C1106.56 219.587 1108.66 217.625 1108.66 215.206C1108.66 212.786 1106.56 210.825 1103.97 210.825C1101.38 210.825 1099.29 212.786 1099.29 215.206C1099.29 217.625 1101.38 219.587 1103.97 219.587Z" fill="#9871F5" fill-opacity="0.5"/>
<path d="M320.096 28.9936C322.684 28.9936 324.782 27.0322 324.782 24.6126C324.782 22.1931 322.684 20.2317 320.096 20.2317C317.509 20.2317 315.411 22.1931 315.411 24.6126C315.411 27.0322 317.509 28.9936 320.096 28.9936Z" fill="#9871F5" fill-opacity="0.5"/>
<path d="M352.802 28.9936C355.39 28.9936 357.488 27.0322 357.488 24.6126C357.488 22.1931 355.39 20.2317 352.802 20.2317C350.214 20.2317 348.116 22.1931 348.116 24.6126C348.116 27.0322 350.214 28.9936 352.802 28.9936Z" fill="#9871F5" fill-opacity="0.5"/>
<path d="M385.533 28.9936C388.121 28.9936 390.219 27.0322 390.219 24.6126C390.219 22.1931 388.121 20.2317 385.533 20.2317C382.945 20.2317 380.847 22.1931 380.847 24.6126C380.847 27.0322 382.945 28.9936 385.533 28.9936Z" fill="#9871F5" fill-opacity="0.5"/>
<path d="M320.095 59.5956C322.683 59.5956 324.781 57.6342 324.781 55.2147C324.781 52.7952 322.683 50.8337 320.095 50.8337C317.507 50.8337 315.409 52.7952 315.409 55.2147C315.409 57.6342 317.507 59.5956 320.095 59.5956Z" fill="#9871F5" fill-opacity="0.5"/>
<path d="M352.802 59.5956C355.39 59.5956 357.488 57.6342 357.488 55.2147C357.488 52.7952 355.39 50.8337 352.802 50.8337C350.214 50.8337 348.116 52.7952 348.116 55.2147C348.116 57.6342 350.214 59.5956 352.802 59.5956Z" fill="#9871F5" fill-opacity="0.5"/>
<path d="M385.535 59.5956C388.123 59.5956 390.22 57.6342 390.22 55.2147C390.22 52.7952 388.123 50.8337 385.535 50.8337C382.947 50.8337 380.849 52.7952 380.849 55.2147C380.849 57.6342 382.947 59.5956 385.535 59.5956Z" fill="#9871F5" fill-opacity="0.5"/>
<path d="M1457.77 488.444C1459.46 488.444 1460.83 487.159 1460.83 485.575C1460.83 483.99 1459.46 482.705 1457.77 482.705C1456.07 482.705 1454.7 483.99 1454.7 485.575C1454.7 487.159 1456.07 488.444 1457.77 488.444Z" fill="#9871F5" fill-opacity="0.5"/>
<path d="M1457.77 508.49C1459.46 508.49 1460.84 507.205 1460.84 505.62C1460.84 504.035 1459.46 502.75 1457.77 502.75C1456.07 502.75 1454.7 504.035 1454.7 505.62C1454.7 507.205 1456.07 508.49 1457.77 508.49Z" fill="#9871F5" fill-opacity="0.5"/>
<path d="M1457.77 528.519C1459.46 528.519 1460.84 527.235 1460.84 525.65C1460.84 524.065 1459.46 522.78 1457.77 522.78C1456.07 522.78 1454.7 524.065 1454.7 525.65C1454.7 527.235 1456.07 528.519 1457.77 528.519Z" fill="#9871F5" fill-opacity="0.5"/>
<path d="M1457.77 548.565C1459.46 548.565 1460.84 547.28 1460.84 545.695C1460.84 544.11 1459.46 542.825 1457.77 542.825C1456.07 542.825 1454.7 544.11 1454.7 545.695C1454.7 547.28 1456.07 548.565 1457.77 548.565Z" fill="#9871F5" fill-opacity="0.5"/>
<path d="M1457.77 568.595C1459.46 568.595 1460.84 567.31 1460.84 565.725C1460.84 564.14 1459.46 562.855 1457.77 562.855C1456.07 562.855 1454.7 564.14 1454.7 565.725C1454.7 567.31 1456.07 568.595 1457.77 568.595Z" fill="#9871F5" fill-opacity="0.5"/>
<path d="M1457.77 588.64C1459.46 588.64 1460.84 587.355 1460.84 585.771C1460.84 584.186 1459.46 582.901 1457.77 582.901C1456.07 582.901 1454.7 584.186 1454.7 585.771C1454.7 587.355 1456.07 588.64 1457.77 588.64Z" fill="#9871F5" fill-opacity="0.5"/>
<path d="M1457.77 608.67C1459.46 608.67 1460.84 607.385 1460.84 605.8C1460.84 604.215 1459.46 602.931 1457.77 602.931C1456.07 602.931 1454.7 604.215 1454.7 605.8C1454.7 607.385 1456.07 608.67 1457.77 608.67Z" fill="#9871F5" fill-opacity="0.5"/>
<path d="M1436.33 488.444C1438.02 488.444 1439.4 487.159 1439.4 485.575C1439.4 483.99 1438.02 482.705 1436.33 482.705C1434.63 482.705 1433.26 483.99 1433.26 485.575C1433.26 487.159 1434.63 488.444 1436.33 488.444Z" fill="#9871F5" fill-opacity="0.5"/>
<path d="M1436.33 508.49C1438.02 508.49 1439.4 507.205 1439.4 505.62C1439.4 504.035 1438.02 502.75 1436.33 502.75C1434.63 502.75 1433.26 504.035 1433.26 505.62C1433.26 507.205 1434.63 508.49 1436.33 508.49Z" fill="#9871F5" fill-opacity="0.5"/>
<path d="M1436.33 528.519C1438.02 528.519 1439.4 527.235 1439.4 525.65C1439.4 524.065 1438.02 522.78 1436.33 522.78C1434.63 522.78 1433.26 524.065 1433.26 525.65C1433.26 527.235 1434.63 528.519 1436.33 528.519Z" fill="#9871F5" fill-opacity="0.5"/>
<path d="M1436.33 548.565C1438.02 548.565 1439.4 547.28 1439.4 545.695C1439.4 544.11 1438.02 542.825 1436.33 542.825C1434.63 542.825 1433.26 544.11 1433.26 545.695C1433.26 547.28 1434.63 548.565 1436.33 548.565Z" fill="#9871F5" fill-opacity="0.5"/>
<path d="M1436.33 568.595C1438.02 568.595 1439.4 567.31 1439.4 565.725C1439.4 564.14 1438.02 562.855 1436.33 562.855C1434.63 562.855 1433.26 564.14 1433.26 565.725C1433.26 567.31 1434.63 568.595 1436.33 568.595Z" fill="#9871F5" fill-opacity="0.5"/>
<path d="M1436.33 588.64C1438.02 588.64 1439.4 587.355 1439.4 585.771C1439.4 584.186 1438.02 582.901 1436.33 582.901C1434.63 582.901 1433.26 584.186 1433.26 585.771C1433.26 587.355 1434.63 588.64 1436.33 588.64Z" fill="#9871F5" fill-opacity="0.5"/>
<path d="M1436.33 608.67C1438.02 608.67 1439.4 607.385 1439.4 605.8C1439.4 604.215 1438.02 602.931 1436.33 602.931C1434.63 602.931 1433.26 604.215 1433.26 605.8C1433.26 607.385 1434.63 608.67 1436.33 608.67Z" fill="#9871F5" fill-opacity="0.5"/>
<path d="M1414.9 488.444C1416.6 488.444 1417.97 487.159 1417.97 485.575C1417.97 483.99 1416.6 482.705 1414.9 482.705C1413.21 482.705 1411.83 483.99 1411.83 485.575C1411.83 487.159 1413.21 488.444 1414.9 488.444Z" fill="#9871F5" fill-opacity="0.5"/>
<path d="M1414.9 508.49C1416.6 508.49 1417.97 507.205 1417.97 505.62C1417.97 504.035 1416.6 502.75 1414.9 502.75C1413.21 502.75 1411.83 504.035 1411.83 505.62C1411.83 507.205 1413.21 508.49 1414.9 508.49Z" fill="#9871F5" fill-opacity="0.5"/>
<path d="M1414.9 528.519C1416.6 528.519 1417.97 527.235 1417.97 525.65C1417.97 524.065 1416.6 522.78 1414.9 522.78C1413.21 522.78 1411.83 524.065 1411.83 525.65C1411.83 527.235 1413.21 528.519 1414.9 528.519Z" fill="#9871F5" fill-opacity="0.5"/>
<path d="M1414.9 548.565C1416.6 548.565 1417.97 547.28 1417.97 545.695C1417.97 544.11 1416.6 542.825 1414.9 542.825C1413.21 542.825 1411.83 544.11 1411.83 545.695C1411.83 547.28 1413.21 548.565 1414.9 548.565Z" fill="#9871F5" fill-opacity="0.5"/>
<path d="M1414.9 568.595C1416.6 568.595 1417.97 567.31 1417.97 565.725C1417.97 564.14 1416.6 562.855 1414.9 562.855C1413.21 562.855 1411.83 564.14 1411.83 565.725C1411.83 567.31 1413.21 568.595 1414.9 568.595Z" fill="#9871F5" fill-opacity="0.5"/>
<path d="M1414.9 588.64C1416.6 588.64 1417.97 587.355 1417.97 585.771C1417.97 584.186 1416.6 582.901 1414.9 582.901C1413.21 582.901 1411.83 584.186 1411.83 585.771C1411.83 587.355 1413.21 588.64 1414.9 588.64Z" fill="#9871F5" fill-opacity="0.5"/>
<path d="M1414.9 608.67C1416.6 608.67 1417.97 607.385 1417.97 605.8C1417.97 604.215 1416.6 602.931 1414.9 602.931C1413.21 602.931 1411.83 604.215 1411.83 605.8C1411.83 607.385 1413.21 608.67 1414.9 608.67Z" fill="#9871F5" fill-opacity="0.5"/>
<path d="M1393.46 488.444C1395.16 488.444 1396.53 487.159 1396.53 485.575C1396.53 483.99 1395.16 482.705 1393.46 482.705C1391.77 482.705 1390.39 483.99 1390.39 485.575C1390.39 487.159 1391.77 488.444 1393.46 488.444Z" fill="#9871F5" fill-opacity="0.5"/>
<path d="M1393.46 508.49C1395.16 508.49 1396.53 507.205 1396.53 505.62C1396.53 504.035 1395.16 502.75 1393.46 502.75C1391.77 502.75 1390.39 504.035 1390.39 505.62C1390.39 507.205 1391.77 508.49 1393.46 508.49Z" fill="#9871F5" fill-opacity="0.5"/>
<path d="M1393.46 528.52C1395.16 528.52 1396.53 527.235 1396.53 525.65C1396.53 524.065 1395.16 522.78 1393.46 522.78C1391.77 522.78 1390.39 524.065 1390.39 525.65C1390.39 527.235 1391.77 528.52 1393.46 528.52Z" fill="#9871F5" fill-opacity="0.5"/>
<path d="M1393.46 548.565C1395.16 548.565 1396.53 547.28 1396.53 545.695C1396.53 544.11 1395.16 542.825 1393.46 542.825C1391.77 542.825 1390.39 544.11 1390.39 545.695C1390.39 547.28 1391.77 548.565 1393.46 548.565Z" fill="#9871F5" fill-opacity="0.5"/>
<path d="M1393.46 568.595C1395.16 568.595 1396.53 567.31 1396.53 565.725C1396.53 564.14 1395.16 562.855 1393.46 562.855C1391.77 562.855 1390.39 564.14 1390.39 565.725C1390.39 567.31 1391.77 568.595 1393.46 568.595Z" fill="#9871F5" fill-opacity="0.5"/>
<path d="M1393.46 588.64C1395.16 588.64 1396.53 587.355 1396.53 585.771C1396.53 584.186 1395.16 582.901 1393.46 582.901C1391.77 582.901 1390.39 584.186 1390.39 585.771C1390.39 587.355 1391.77 588.64 1393.46 588.64Z" fill="#9871F5" fill-opacity="0.5"/>
<path d="M1393.46 608.67C1395.16 608.67 1396.53 607.385 1396.53 605.8C1396.53 604.215 1395.16 602.931 1393.46 602.931C1391.77 602.931 1390.39 604.215 1390.39 605.8C1390.39 607.385 1391.77 608.67 1393.46 608.67Z" fill="#9871F5" fill-opacity="0.5"/>
</svg>
