<?xml version="1.0" encoding="UTF-8"?>
<!DOCTYPE svg PUBLIC "-//W3C//DTD SVG 1.1//EN" "http://www.w3.org/Graphics/SVG/1.1/DTD/svg11.dtd">
<!-- Creator: CorelDRAW 2019 (64 Bit) -->
<svg xmlns="http://www.w3.org/2000/svg" xml:space="preserve" width="25px" height="333px" version="1.1" style="shape-rendering:geometricPrecision; text-rendering:geometricPrecision; image-rendering:optimizeQuality; fill-rule:evenodd; clip-rule:evenodd"
viewBox="0 0 30.2 35.72"
 xmlns:xlink="http://www.w3.org/1999/xlink">
 <defs>
  <style type="text/css">
   <![CDATA[
    .fil0 {fill:#FF05FF;fill-rule:nonzero}
   ]]>
  </style>
 </defs>
 <g id="Camada_x0020_1">
  <metadata id="CorelCorpID_0Corel-Layer"/>
  <path class="fil0" d="M13.25 30.98l1.69 1.44 9.86 -10.29c1.78,-1.87 2.74,-3.8 2.95,-5.82 0.21,-2.05 -0.33,-4.25 -1.53,-6.62 -1.07,-2.11 -2.69,-4.03 -4.8,-5.37 -1.86,-1.17 -4.09,-1.9 -6.65,-1.92 -0.41,0 -0.83,0.02 -1.26,0.07 -2.94,0.35 -5.7,1.93 -7.74,4.18 -2.05,2.27 -3.35,5.19 -3.37,8.22 0,0.41 0.02,0.84 0.07,1.29 0.24,2 1.18,4.11 2.46,6.09 1.34,2.07 3.04,3.96 4.68,5.4l12.19 -12.49c0.33,-0.63 0.31,-1.39 0.03,-2.1 -0.22,-0.54 -0.57,-1.05 -1.03,-1.46 -0.46,-0.41 -1.02,-0.71 -1.65,-0.84 -1.02,-0.22 -2.24,0.01 -3.52,0.99l-0.73 0.56 -0.73 -0.56c-1.38,-1.05 -2.79,-1.17 -3.93,-0.76 -0.56,0.2 -1.05,0.51 -1.44,0.91 -0.39,0.38 -0.68,0.84 -0.85,1.32 -0.26,0.77 -0.17,1.64 0.44,2.39l4.54 4.4 -1.68 1.72 -4.64 -4.5 -0.03 -0.04c-1.24,-1.48 -1.42,-3.19 -0.9,-4.73 0.28,-0.84 0.77,-1.62 1.42,-2.27 0.64,-0.64 1.44,-1.15 2.34,-1.47 1.62,-0.58 3.56,-0.51 5.45,0.62 1.67,-1.04 3.32,-1.25 4.77,-0.94 1.04,0.23 1.97,0.73 2.73,1.4 0.75,0.66 1.33,1.5 1.68,2.39 0.55,1.41 0.54,2.98 -0.27,4.31l-0.06 0.11 -13.94 14.29 -0.84 -0.67c-2.08,-1.64 -4.33,-4.03 -6.04,-6.67 -1.47,-2.27 -2.56,-4.74 -2.84,-7.12 -0.06,-0.51 -0.08,-1.04 -0.08,-1.58 0.02,-3.65 1.56,-7.14 3.98,-9.81 2.41,-2.68 5.72,-4.56 9.26,-4.97 0.49,-0.05 1,-0.08 1.54,-0.08 3.06,0.02 5.72,0.89 7.93,2.29 2.49,1.58 4.39,3.84 5.65,6.32 1.41,2.78 2.04,5.42 1.78,7.95 -0.27,2.56 -1.43,4.96 -3.61,7.23l-11.42 11.93 -3.41 -2.9 1.55 -1.84z"/>
 </g>
</svg>
