<svg width="322" height="44" viewBox="0 0 322 44" fill="none" xmlns="http://www.w3.org/2000/svg">
<g clip-path="url(#clip0)">
<path d="M35.6249 0.290524C27.7766 -1.53652 23.6112 6.34838 23.6112 6.34838C23.6112 6.34838 19.4482 -1.53652 11.5976 0.290524C4.46264 1.95212 2.47741 10.7186 8.63044 17.053C14.7835 23.3898 23.6112 26.011 23.6112 29.7265C23.6112 26.011 32.439 23.3898 38.592 17.053C44.7474 10.7186 42.7622 1.95212 35.6249 0.290524Z" fill="#74009E"/>
<path d="M16.7949 31.2014C16.0602 30.8232 15.2471 30.62 14.4696 30.3364C11.9447 29.4216 9.75025 27.6348 8.34988 25.3539C7.88151 24.5929 7.38699 23.6947 6.50968 23.5221C5.92005 23.4063 5.27099 23.7065 4.98093 24.2289C4.50305 25.0916 5.17827 26.4199 5.59196 27.1975C6.60954 29.1144 7.96235 30.8563 9.56955 32.3218C7.20154 32.2059 5.88439 29.554 4.98093 27.7104C3.94433 25.5997 3.29051 23.3023 3.0694 20.96C2.99808 20.2037 2.95053 19.3835 2.46076 18.795C1.99714 18.2348 1.07466 18.1615 0.511188 18.6272C-0.106969 19.1401 -0.0213777 20.05 0.0475705 20.7757C0.325741 23.6829 0.603911 26.5901 0.882081 29.4973C1.04138 31.1707 1.22207 32.9032 2.08273 34.3497C3.14786 36.1413 5.09505 37.2191 7.02798 38.0133C8.24052 38.512 10.5943 38.9563 11.5381 39.8616C12.482 40.7668 12.5961 42.6341 12.5961 43.9837H19.4624C19.4624 43.9837 19.4624 38.3678 19.4624 36.7322C19.4624 34.6688 18.8585 32.3241 16.8923 31.2558C16.859 31.2369 16.8281 31.2203 16.7949 31.2014Z" fill="white"/>
<path d="M30.43 31.2014C31.1622 30.8232 31.9754 30.62 32.7528 30.3364C35.2777 29.4216 37.4722 27.6348 38.8749 25.3539C39.3409 24.5929 39.8355 23.6947 40.7128 23.5221C41.3024 23.4063 41.9515 23.7065 42.2415 24.2289C42.7194 25.0916 42.0442 26.4199 41.6329 27.1975C40.6129 29.1144 39.2601 30.8563 37.6529 32.3218C40.0209 32.2059 41.3404 29.554 42.2415 27.7104C43.2781 25.5997 43.9343 23.3023 44.153 20.96C44.2244 20.2037 44.2743 19.3835 44.7617 18.795C45.2253 18.2348 46.1478 18.1615 46.7113 18.6272C47.3318 19.1401 47.2438 20.05 47.1749 20.7757C46.8967 23.6829 46.6185 26.5901 46.3404 29.4973C46.1811 31.1707 46.0004 32.9032 45.1421 34.3497C44.077 36.1413 42.1298 37.2191 40.1945 38.0133C38.9819 38.512 36.6282 38.9563 35.6843 39.8616C34.7404 40.7668 34.6263 42.6341 34.6263 43.9837H27.76C27.76 43.9837 27.76 38.3678 27.76 36.7322C27.76 34.6688 28.3663 32.3241 30.3301 31.2558C30.3634 31.2369 30.3967 31.2203 30.43 31.2014Z" fill="white"/>
<path d="M38.592 17.053C44.7474 10.7186 42.7622 1.95212 35.6248 0.290524C27.7766 -1.53652 23.6112 6.34838 23.6112 6.34838V29.7265C23.6112 26.011 32.439 23.3898 38.592 17.053Z" fill="#9B2EBF"/>
<path d="M65.2012 12.3377H55.9075V38.7696H65.2012C73.6937 38.7696 79.2167 33.5816 79.2167 25.5927C79.2167 17.5636 73.6937 12.3377 65.2012 12.3377ZM61.2403 34.2623V16.8072H65.011C70.6101 16.8072 73.7698 20.1021 73.7698 25.5927C73.7698 31.0833 70.6101 34.2623 65.011 34.2623H61.2403ZM109.157 25.4792C109.157 17.5636 103.137 11.9595 95.5574 11.9595C88.054 11.9595 81.9223 17.5636 81.9223 25.4792C81.9223 33.4303 88.054 39.0343 95.5574 39.0343C103.099 39.0343 109.157 33.4303 109.157 25.4792ZM87.4073 25.4792C87.4073 20.1021 90.7216 16.7316 95.5574 16.7316C100.358 16.7316 103.672 20.1021 103.672 25.4792C103.672 30.8563 100.358 34.3001 95.5574 34.3001C90.7216 34.3001 87.4073 30.8563 87.4073 25.4792ZM130.524 12.2999V30.4758L118.451 12.2999H113.118V38.7696H118.451V20.6315L130.524 38.7696H135.856V12.2999H130.524ZM159.168 38.7696H164.805L155.245 12.2999H149.035L139.475 38.7696H145.074L146.826 33.7328H157.416L159.168 38.7696ZM155.968 29.4926H148.274L152.121 18.4357L155.968 29.4926ZM166.976 16.6181H174.061V38.7696H179.394V16.6181H186.479V12.3377H166.976V16.6181ZM190.364 38.7696H195.696V12.3377H190.364V38.7696ZM226.892 25.4792C226.892 17.5636 220.872 11.9595 213.292 11.9595C205.789 11.9595 199.657 17.5636 199.657 25.4792C199.657 33.4303 205.789 39.0343 213.292 39.0343C220.834 39.0343 226.892 33.4303 226.892 25.4792ZM205.142 25.4792C205.142 20.1021 208.457 16.7316 213.292 16.7316C218.093 16.7316 221.407 20.1021 221.407 25.4792C221.407 30.8563 218.093 34.3001 213.292 34.3001C208.457 34.3001 205.142 30.8563 205.142 25.4792ZM248.259 12.2999V30.4758L236.186 12.2999H230.853V38.7696H236.186V20.6315L248.259 38.7696H253.591V12.2999H248.259ZM264.447 35.9286C264.447 34.1866 263.075 32.8252 261.209 32.8252C259.267 32.8252 257.895 34.1866 257.895 35.9286C257.895 37.6706 259.267 39.0343 261.209 39.0343C263.075 39.0343 264.447 37.6706 264.447 35.9286ZM278.044 12.3377H268.751V38.7696H278.044C286.539 38.7696 292.062 33.5816 292.062 25.5927C292.062 17.5636 286.539 12.3377 278.044 12.3377ZM274.083 34.2623V16.8072H277.854C283.453 16.8072 286.615 20.1021 286.615 25.5927C286.615 31.0833 283.453 34.2623 277.854 34.2623H274.083ZM322 25.4792C322 17.5636 315.982 11.9595 308.403 11.9595C300.899 11.9595 294.765 17.5636 294.765 25.4792C294.765 33.4303 300.899 39.0343 308.403 39.0343C315.944 39.0343 322 33.4303 322 25.4792ZM300.25 25.4792C300.25 20.1021 303.565 16.7316 308.403 16.7316C313.201 16.7316 316.515 20.1021 316.515 25.4792C316.515 30.8563 313.201 34.3001 308.403 34.3001C303.565 34.3001 300.25 30.8563 300.25 25.4792Z" fill="white"/>
</g>
<defs>
<clipPath id="clip0">
<rect width="322" height="44" fill="white"/>
</clipPath>
</defs>
</svg>
