<svg width="21" height="20" viewBox="0 0 21 20" fill="none" xmlns="http://www.w3.org/2000/svg">
<path d="M11.898 11.3118C11.1208 12.0715 9.87919 12.0715 9.10199 11.3118L1.26344 3.64989C0.57037 2.97243 0.57037 1.8574 1.26344 1.17994C1.93454 0.523975 3.00664 0.523976 3.67774 1.17995L9.10199 6.48198C9.87919 7.24166 11.1208 7.24166 11.898 6.48198L17.3223 1.17995C17.9934 0.523978 19.0655 0.523977 19.7366 1.17995C20.4296 1.85741 20.4296 2.97244 19.7366 3.6499L11.898 11.3118Z" fill="white"/>
<path d="M1.72578 16.5848C0.7827 16.5848 0.0181789 17.3493 0.0181789 18.2924C0.0181789 19.2355 0.7827 20 1.72578 20L19.2742 20C20.2173 20 20.9818 19.2355 20.9818 18.2924C20.9818 17.3493 20.2173 16.5848 19.2742 16.5848L1.72578 16.5848Z" fill="white"/>
</svg>
