<svg width="28" height="28" viewBox="0 0 28 28" fill="none" xmlns="http://www.w3.org/2000/svg">
<path d="M14 0C9.71133 0 6.22222 3.30547 6.22222 7.36842C6.22222 11.4314 9.71133 14.7368 14 14.7368C18.2887 14.7368 21.7778 11.4314 21.7778 7.36842C21.7778 3.30547 18.2887 0 14 0ZM14 11.7895C11.4271 11.7895 9.33333 9.80589 9.33333 7.36842C9.33333 4.93095 11.4271 2.94737 14 2.94737C16.5729 2.94737 18.6667 4.93095 18.6667 7.36842C18.6667 9.80589 16.5729 11.7895 14 11.7895ZM28 28V26.5263C28 20.8394 23.114 16.2105 17.1111 16.2105H10.8889C4.88444 16.2105 0 20.8394 0 26.5263V28H3.11111V26.5263C3.11111 22.4634 6.60022 19.1579 10.8889 19.1579H17.1111C21.3998 19.1579 24.8889 22.4634 24.8889 26.5263V28H28Z" fill="white"/>
</svg>
