<svg width="115" height="101" viewBox="0 0 115 101" fill="none" xmlns="http://www.w3.org/2000/svg">
<path d="M51.8996 39.2804H63.1005V67.3295H51.8996V39.2804Z" fill="#FF0000"/>
<path d="M57.5001 72.9393C54.407 72.9393 51.8996 75.4509 51.8996 78.5491C51.8996 81.6474 54.407 84.159 57.5001 84.159C60.5931 84.159 63.1005 81.6474 63.1005 78.5491C63.1005 75.4509 60.5931 72.9393 57.5001 72.9393Z" fill="#FF0000"/>
<path fill-rule="evenodd" clip-rule="evenodd" d="M5.60882 101C1.29462 101 -1.39952 96.3193 0.762047 92.5795L52.6532 2.79911C54.8103 -0.933025 60.1897 -0.93304 62.3468 2.79909L114.238 92.5795C116.4 96.3193 113.705 101 109.391 101H5.60882ZM99.6775 89.7804L57.5 16.8063L15.3225 89.7804H99.6775Z" fill="#FF0000"/>
<path d="M51.8996 72.9393H63.1005V84.159H51.8996V72.9393Z" fill="#FF0000"/>
</svg>
